<?xml version="1.0" encoding="UTF-8" standalone="no"?>
<!DOCTYPE svg PUBLIC "-//W3C//DTD SVG 1.1//EN" "http://www.w3.org/Graphics/SVG/1.1/DTD/svg11.dtd">
<svg width="100%" height="100%" viewBox="0 0 574 115" version="1.1" xmlns="http://www.w3.org/2000/svg" xmlns:xlink="http://www.w3.org/1999/xlink" xml:space="preserve" style="fill-rule:evenodd;clip-rule:evenodd;stroke-linejoin:round;stroke-miterlimit:1.41421;">
    <g transform="matrix(1,0,0,1,-361.379,-275.615)">
        <g transform="matrix(13.0374,0,0,13.0374,-4145.01,-3322.29)">
            <path d="M348.815,284.593L347.76,284.593L347.76,277.872C347.506,278.114 347.173,278.356 346.761,278.598C346.349,278.841 345.979,279.022 345.651,279.143L345.651,278.124C346.241,277.846 346.756,277.511 347.198,277.116C347.639,276.721 347.952,276.339 348.135,275.968L348.815,275.968L348.815,284.593Z" style="fill:white;fill-rule:nonzero;"/>
            <path d="M354.598,284.593L353.543,284.593L353.543,277.872C353.29,278.114 352.957,278.356 352.544,278.598C352.132,278.841 351.762,279.022 351.434,279.143L351.434,278.124C352.024,277.846 352.54,277.511 352.981,277.116C353.422,276.721 353.735,276.339 353.918,275.968L354.598,275.968L354.598,284.593Z" style="fill:white;fill-rule:nonzero;"/>
            <path d="M357.885,279.571L357.885,278.37L359.086,278.37L359.086,279.571L357.885,279.571ZM357.885,284.593L357.885,283.391L359.086,283.391L359.086,284.593L357.885,284.593Z" style="fill:white;fill-rule:nonzero;"/>
            <path d="M360.633,282.343L361.741,282.249C361.823,282.788 362.013,283.193 362.312,283.465C362.611,283.736 362.971,283.872 363.393,283.872C363.901,283.872 364.331,283.68 364.682,283.298C365.034,282.915 365.209,282.407 365.209,281.774C365.209,281.173 365.041,280.698 364.703,280.35C364.365,280.003 363.922,279.829 363.375,279.829C363.036,279.829 362.729,279.906 362.456,280.06C362.182,280.215 361.967,280.415 361.811,280.661L360.821,280.532L361.653,276.12L365.924,276.12L365.924,277.128L362.497,277.128L362.034,279.436C362.549,279.077 363.09,278.897 363.657,278.897C364.407,278.897 365.04,279.157 365.555,279.677C366.071,280.196 366.329,280.864 366.329,281.68C366.329,282.458 366.102,283.13 365.649,283.696C365.098,284.391 364.346,284.739 363.393,284.739C362.612,284.739 361.974,284.52 361.48,284.083C360.986,283.645 360.704,283.065 360.633,282.343Z" style="fill:white;fill-rule:nonzero;"/>
            <path d="M367.465,282.606L368.479,282.513C368.565,282.989 368.729,283.335 368.971,283.55C369.213,283.764 369.524,283.872 369.903,283.872C370.227,283.872 370.511,283.798 370.755,283.649C371,283.501 371.2,283.303 371.356,283.055C371.512,282.806 371.643,282.471 371.749,282.05C371.854,281.628 371.907,281.198 371.907,280.761C371.907,280.714 371.905,280.643 371.901,280.55C371.69,280.886 371.402,281.158 371.037,281.367C370.671,281.576 370.276,281.68 369.85,281.68C369.139,281.68 368.538,281.423 368.045,280.907C367.553,280.391 367.307,279.712 367.307,278.868C367.307,277.997 367.564,277.296 368.078,276.764C368.591,276.233 369.235,275.968 370.008,275.968C370.567,275.968 371.078,276.118 371.541,276.419C372.003,276.72 372.355,277.148 372.595,277.705C372.835,278.262 372.956,279.067 372.956,280.122C372.956,281.22 372.836,282.094 372.598,282.744C372.36,283.394 372.005,283.889 371.535,284.229C371.064,284.569 370.512,284.739 369.879,284.739C369.208,284.739 368.659,284.553 368.233,284.18C367.807,283.806 367.551,283.282 367.465,282.606ZM371.784,278.815C371.784,278.21 371.623,277.729 371.3,277.374C370.978,277.018 370.59,276.841 370.137,276.841C369.668,276.841 369.26,277.032 368.913,277.415C368.565,277.798 368.391,278.294 368.391,278.903C368.391,279.45 368.556,279.894 368.886,280.236C369.216,280.578 369.624,280.749 370.108,280.749C370.596,280.749 370.998,280.578 371.312,280.236C371.626,279.894 371.784,279.421 371.784,278.815Z" style="fill:white;fill-rule:nonzero;"/>
            <path d="M374.567,279.571L374.567,278.37L375.768,278.37L375.768,279.571L374.567,279.571ZM374.567,284.593L374.567,283.391L375.768,283.391L375.768,284.593L374.567,284.593Z" style="fill:white;fill-rule:nonzero;"/>
            <path d="M377.315,282.343L378.422,282.249C378.504,282.788 378.695,283.193 378.994,283.465C379.292,283.736 379.653,283.872 380.075,283.872C380.583,283.872 381.012,283.68 381.364,283.298C381.715,282.915 381.891,282.407 381.891,281.774C381.891,281.173 381.722,280.698 381.384,280.35C381.046,280.003 380.604,279.829 380.057,279.829C379.717,279.829 379.411,279.906 379.137,280.06C378.864,280.215 378.649,280.415 378.493,280.661L377.502,280.532L378.334,276.12L382.606,276.12L382.606,277.128L379.178,277.128L378.715,279.436C379.231,279.077 379.772,278.897 380.338,278.897C381.088,278.897 381.721,279.157 382.237,279.677C382.752,280.196 383.01,280.864 383.01,281.68C383.01,282.458 382.784,283.13 382.331,283.696C381.78,284.391 381.028,284.739 380.075,284.739C379.293,284.739 378.656,284.52 378.162,284.083C377.667,283.645 377.385,283.065 377.315,282.343Z" style="fill:white;fill-rule:nonzero;"/>
            <path d="M384.147,282.606L385.161,282.513C385.247,282.989 385.411,283.335 385.653,283.55C385.895,283.764 386.206,283.872 386.584,283.872C386.909,283.872 387.193,283.798 387.437,283.649C387.681,283.501 387.881,283.303 388.038,283.055C388.194,282.806 388.325,282.471 388.43,282.05C388.536,281.628 388.588,281.198 388.588,280.761C388.588,280.714 388.586,280.643 388.583,280.55C388.372,280.886 388.083,281.158 387.718,281.367C387.353,281.576 386.958,281.68 386.532,281.68C385.821,281.68 385.219,281.423 384.727,280.907C384.235,280.391 383.989,279.712 383.989,278.868C383.989,277.997 384.246,277.296 384.759,276.764C385.273,276.233 385.917,275.968 386.69,275.968C387.249,275.968 387.759,276.118 388.222,276.419C388.685,276.72 389.037,277.148 389.277,277.705C389.517,278.262 389.637,279.067 389.637,280.122C389.637,281.22 389.518,282.094 389.28,282.744C389.042,283.394 388.687,283.889 388.216,284.229C387.746,284.569 387.194,284.739 386.561,284.739C385.889,284.739 385.34,284.553 384.915,284.18C384.489,283.806 384.233,283.282 384.147,282.606ZM388.465,278.815C388.465,278.21 388.304,277.729 387.982,277.374C387.66,277.018 387.272,276.841 386.819,276.841C386.35,276.841 385.942,277.032 385.594,277.415C385.247,277.798 385.073,278.294 385.073,278.903C385.073,279.45 385.238,279.894 385.568,280.236C385.898,280.578 386.305,280.749 386.79,280.749C387.278,280.749 387.679,280.578 387.994,280.236C388.308,279.894 388.465,279.421 388.465,278.815Z" style="fill:white;fill-rule:nonzero;"/>
        </g>
    </g>
</svg>
